<svg xmlns="http://www.w3.org/2000/svg" xmlns:xlink="http://www.w3.org/1999/xlink" style="margin:auto;background:rgba(99, 99, 99, 0.37043341796874996);display:block;z-index:1;position:relative" width="1280" height="593" preserveAspectRatio="xMidYMid" viewBox="0 0 1280 593">
<g transform="translate(640,296.5) scale(1,1) translate(-640,-296.5)"><path id="path0" d="M 1206.0613615630714 232.07255967803218
c 0 20.71913210627792 -5.069574877068002 5.951240073079829 -11.02081495014783 5.951240073079829
S 1184.019731662776 252.7916917843101 1184.019731662776 232.07255967803218
s 5.069574877068002 -5.951240073079829 11.02081495014783 -5.951240073079829
S 1206.0613615630714 211.35342757175425 1206.0613615630714 232.07255967803218
z" fill="none" stroke="none"></path>
<circle cx="0" cy="0" r="4.245977835149517" fill="#9DF871" opacity="0.9">
  <animateMotion begin="-9.724178802834377s" dur="10s" repeatCount="indefinite" fill="#9DF871">
    <mpath xlink:href="#path0" fill="#9DF871"></mpath>
  </animateMotion>
</circle><path id="path1" d="M 477.42551532724633 576.8617099847725
c 0 31.57582183793736 -7.7259989603463755 9.069650953450093 -16.795649913796467 9.069650953450093
S 443.8342154996534 608.4375318227098 443.8342154996534 576.8617099847725
s 7.7259989603463755 -9.069650953450093 16.795649913796467 -9.069650953450093
S 477.42551532724633 545.2858881468351 477.42551532724633 576.8617099847725
z" fill="none" stroke="none"></path>
<circle cx="0" cy="0" r="6.168411656236046" fill="#51CACC" opacity="0.9">
  <animateMotion begin="-9.616432592484719s" dur="10s" repeatCount="indefinite" fill="#51CACC">
    <mpath xlink:href="#path1" fill="#51CACC"></mpath>
  </animateMotion>
</circle><path id="path2" d="M 1085.065163538495 166.9027401307229
c 0 21.38945434456576 -5.233589892819281 6.143779439396549 -11.37736933221583 6.143779439396549
S 1062.3104248740635 188.29219447528865 1062.3104248740635 166.9027401307229
s 5.233589892819281 -6.143779439396549 11.37736933221583 -6.143779439396549
S 1085.065163538495 145.51328578615713 1085.065163538495 166.9027401307229
z" fill="none" stroke="none"></path>
<circle cx="0" cy="0" r="5.390600197805247" fill="#9DF871" opacity="0.9">
  <animateMotion begin="-2.8805325634454193s" dur="10s" repeatCount="indefinite" fill="#9DF871">
    <mpath xlink:href="#path2" fill="#9DF871"></mpath>
  </animateMotion>
</circle><path id="path3" d="M 300.16851339257255 241.75446431880772
c 0 35.17879567149425 -8.607577664301784 10.10454769287601 -18.712125357177793 10.10454769287601
S 262.74426267821696 276.93325999030196 262.74426267821696 241.75446431880772
s 8.607577664301784 -10.10454769287601 18.712125357177793 -10.10454769287601
S 300.16851339257255 206.57566864731348 300.16851339257255 241.75446431880772
z" fill="none" stroke="none"></path>
<circle cx="0" cy="0" r="6.4256686890904025" fill="#E0FF77" opacity="0.9">
  <animateMotion begin="-8.633785905578694s" dur="10s" repeatCount="indefinite" fill="#E0FF77">
    <mpath xlink:href="#path3" fill="#E0FF77"></mpath>
  </animateMotion>
</circle><path id="path4" d="M 1021.2989875931701 66.61750237436738
c 0 33.51595433972475 -8.20071223206031 9.626923055027323 -17.827635287087634 9.626923055027323
S 985.6437170189947 100.13345671409212 985.6437170189947 66.61750237436738
s 8.20071223206031 -9.626923055027323 17.827635287087634 -9.626923055027323
S 1021.2989875931701 33.101548034642626 1021.2989875931701 66.61750237436738
z" fill="none" stroke="none"></path>
<circle cx="0" cy="0" r="6.496789069263757" fill="#DE9DD6" opacity="0.9">
  <animateMotion begin="-0.07130124683710992s" dur="10s" repeatCount="indefinite" fill="#DE9DD6">
    <mpath xlink:href="#path4" fill="#DE9DD6"></mpath>
  </animateMotion>
</circle><path id="path5" d="M 745.5188028722741 333.32208108967893
c 0 21.038387346644654 -5.1476905209875214 6.042941046376656 -11.190631567364179 6.042941046376656
S 723.1375397375457 354.3604684363236 723.1375397375457 333.32208108967893
s 5.1476905209875214 -6.042941046376656 11.190631567364179 -6.042941046376656
S 745.5188028722741 312.2836937430343 745.5188028722741 333.32208108967893
z" fill="none" stroke="none"></path>
<circle cx="0" cy="0" r="6.440930358688592" fill="#DE9DD6" opacity="0.9">
  <animateMotion begin="-5.788129079672624s" dur="10s" repeatCount="indefinite" fill="#DE9DD6">
    <mpath xlink:href="#path5" fill="#DE9DD6"></mpath>
  </animateMotion>
</circle><path id="path6" d="M 498.9571906582967 241.65238259215192
c 0 30.784291395052826 -7.532326617938456 8.84229646453645 -16.374623082474905 8.84229646453645
S 466.20794449334693 272.43667398720476 466.20794449334693 241.65238259215192
s 7.532326617938456 -8.84229646453645 16.374623082474905 -8.84229646453645
S 498.9571906582967 210.8680911970991 498.9571906582967 241.65238259215192
z" fill="none" stroke="none"></path>
<circle cx="0" cy="0" r="7.388765057369789" fill="#DE9DD6" opacity="0.9">
  <animateMotion begin="-0.12843968739852274s" dur="10s" repeatCount="indefinite" fill="#DE9DD6">
    <mpath xlink:href="#path6" fill="#DE9DD6"></mpath>
  </animateMotion>
</circle><path id="path7" d="M 83.53531544923314 548.2970695973021
c 0 19.59416374993894 -4.794316662219101 5.628110864344164 -10.422427526563265 5.628110864344164
S 62.6904603961066 567.891233347241 62.6904603961066 548.2970695973021
s 4.794316662219101 -5.628110864344164 10.422427526563265 -5.628110864344164
S 83.53531544923314 528.7029058473631 83.53531544923314 548.2970695973021
z" fill="none" stroke="none"></path>
<circle cx="0" cy="0" r="7.618118077366163" fill="#51CACC" opacity="0.9">
  <animateMotion begin="-9.664379459441497s" dur="10s" repeatCount="indefinite" fill="#51CACC">
    <mpath xlink:href="#path7" fill="#51CACC"></mpath>
  </animateMotion>
</circle><path id="path8" d="M 599.0906845624262 69.03364422377372
c 0 28.281685431919684 -6.9199868610016235 8.123462836827995 -15.043449697829619 8.123462836827995
S 569.003785166767 97.3153296556934 569.003785166767 69.03364422377372
s 6.9199868610016235 -8.123462836827995 15.043449697829619 -8.123462836827995
S 599.0906845624262 40.75195879185404 599.0906845624262 69.03364422377372
z" fill="none" stroke="none"></path>
<circle cx="0" cy="0" r="5.352818141574196" fill="#51CACC" opacity="0.9">
  <animateMotion begin="-7.383485819672453s" dur="10s" repeatCount="indefinite" fill="#51CACC">
    <mpath xlink:href="#path8" fill="#51CACC"></mpath>
  </animateMotion>
</circle><path id="path9" d="M 18.892631674506646 557.5597241835454
c 0 21.093694641502672 -5.16122315696342 6.058827184261406 -11.220050341224825 6.058827184261406
S -3.5474690079430022 578.6534188250481 -3.5474690079430022 557.5597241835454
s 5.16122315696342 -6.058827184261406 11.220050341224825 -6.058827184261406
S 18.892631674506646 536.4660295420427 18.892631674506646 557.5597241835454
z" fill="none" stroke="none"></path>
<circle cx="0" cy="0" r="6.564959121194195" fill="#E0FF77" opacity="0.9">
  <animateMotion begin="-0.32585022590457147s" dur="10s" repeatCount="indefinite" fill="#E0FF77">
    <mpath xlink:href="#path9" fill="#E0FF77"></mpath>
  </animateMotion>
</circle><path id="path10" d="M 943.8829850045372 288.43301200622926
c 0 32.48876059451545 -7.949377592275056 9.331878043105501 -17.281255635380557 9.331878043105501
S 909.320473733776 320.9217726007447 909.320473733776 288.43301200622926
s 7.949377592275056 -9.331878043105501 17.281255635380557 -9.331878043105501
S 943.8829850045372 255.94425141171382 943.8829850045372 288.43301200622926
z" fill="none" stroke="none"></path>
<circle cx="0" cy="0" r="6.918732563699613" fill="#E0FF77" opacity="0.9">
  <animateMotion begin="-1.8641339715010297s" dur="10s" repeatCount="indefinite" fill="#E0FF77">
    <mpath xlink:href="#path10" fill="#E0FF77"></mpath>
  </animateMotion>
</circle><path id="path11" d="M 445.4277447047378 116.73411481605031
c 0 35.31322797372701 -8.640470674422566 10.143161226496057 -18.78363190091862 10.143161226496057
S 407.8604809029005 152.0473427897773 407.8604809029005 116.73411481605031
s 8.640470674422566 -10.143161226496057 18.78363190091862 -10.143161226496057
S 445.4277447047378 81.4208868423233 445.4277447047378 116.73411481605031
z" fill="none" stroke="none"></path>
<circle cx="0" cy="0" r="5.0971943732743155" fill="#FF708E" opacity="0.9">
  <animateMotion begin="-4.242932840339662s" dur="10s" repeatCount="indefinite" fill="#FF708E">
    <mpath xlink:href="#path11" fill="#FF708E"></mpath>
  </animateMotion>
</circle><path id="path12" d="M 813.7936676381538 94.38310279107091
c 0 29.592938591805787 -7.2408254001226915 8.500099382752726 -15.740924782875418 8.500099382752726
S 782.3118180724031 123.9760413828767 782.3118180724031 94.38310279107091
s 7.2408254001226915 -8.500099382752726 15.740924782875418 -8.500099382752726
S 813.7936676381538 64.79016419926512 813.7936676381538 94.38310279107091
z" fill="none" stroke="none"></path>
<circle cx="0" cy="0" r="5.3852049401266004" fill="#DE9DD6" opacity="0.9">
  <animateMotion begin="-9.278067747467935s" dur="10s" repeatCount="indefinite" fill="#DE9DD6">
    <mpath xlink:href="#path12" fill="#DE9DD6"></mpath>
  </animateMotion>
</circle><path id="path13" d="M 198.40830064522936 435.97411105497383
c 0 23.12640652486944 -5.65858883055316 6.642691235866755 -12.301280066419915 6.642691235866755
S 173.80574051238955 459.10051757984326 173.80574051238955 435.97411105497383
s 5.65858883055316 -6.642691235866755 12.301280066419915 -6.642691235866755
S 198.40830064522936 412.8477045301044 198.40830064522936 435.97411105497383
z" fill="none" stroke="none"></path>
<circle cx="0" cy="0" r="4.386230566913216" fill="#FF708E" opacity="0.9">
  <animateMotion begin="-4.029769891293375s" dur="10s" repeatCount="indefinite" fill="#FF708E">
    <mpath xlink:href="#path13" fill="#FF708E"></mpath>
  </animateMotion>
</circle><path id="path14" d="M 272.1347168137047 123.718347130249
c 0 37.37562169451571 -9.145098925253842 10.735550912254512 -19.880649837508354 10.735550912254512
S 232.373417138688 161.09396882476472 232.373417138688 123.718347130249
s 9.145098925253842 -10.735550912254512 19.880649837508354 -10.735550912254512
S 272.1347168137047 86.34272543573329 272.1347168137047 123.718347130249
z" fill="none" stroke="none"></path>
<circle cx="0" cy="0" r="7.467138815621616" fill="#E0FF77" opacity="0.9">
  <animateMotion begin="-2.6819303927697935s" dur="10s" repeatCount="indefinite" fill="#E0FF77">
    <mpath xlink:href="#path14" fill="#E0FF77"></mpath>
  </animateMotion>
</circle><path id="path15" d="M 499.31925705231794 458.0089995556606
c 0 21.45654923675934 -5.2500067281432425 6.163051376515981 -11.413058104659225 6.163051376515981
S 476.4931408429995 479.4655487924199 476.4931408429995 458.0089995556606
s 5.2500067281432425 -6.163051376515981 11.413058104659225 -6.163051376515981
S 499.31925705231794 436.55245031890126 499.31925705231794 458.0089995556606
z" fill="none" stroke="none"></path>
<circle cx="0" cy="0" r="5.2563604247118745" fill="#FF708E" opacity="0.9">
  <animateMotion begin="-9.694906918447199s" dur="10s" repeatCount="indefinite" fill="#FF708E">
    <mpath xlink:href="#path15" fill="#FF708E"></mpath>
  </animateMotion>
</circle><path id="path16" d="M 258.1501401447567 101.3465862745122
c 0 28.42340428666165 -6.954662750991679 8.164169316381539 -15.118832067373217 8.164169316381539
S 227.91247601001024 129.76999056117387 227.91247601001024 101.3465862745122
s 6.954662750991679 -8.164169316381539 15.118832067373217 -8.164169316381539
S 258.1501401447567 72.92318198785055 258.1501401447567 101.3465862745122
z" fill="none" stroke="none"></path>
<circle cx="0" cy="0" r="5.479343257456098" fill="#E0FF77" opacity="0.9">
  <animateMotion begin="-5.703372469878747s" dur="10s" repeatCount="indefinite" fill="#E0FF77">
    <mpath xlink:href="#path16" fill="#E0FF77"></mpath>
  </animateMotion>
</circle><path id="path17" d="M 615.468597221724 546.2864616387476
c 0 24.04292298135889 -5.882842857141004 6.905945962730744 -12.788788819871748 6.905945962730744
S 589.8910195819805 570.3293846201065 589.8910195819805 546.2864616387476
s 5.882842857141004 -6.905945962730744 12.788788819871748 -6.905945962730744
S 615.468597221724 522.2435386573887 615.468597221724 546.2864616387476
z" fill="none" stroke="none"></path>
<circle cx="0" cy="0" r="5.8592159540533695" fill="#FF708E" opacity="0.9">
  <animateMotion begin="-2.2291894974314985s" dur="10s" repeatCount="indefinite" fill="#FF708E">
    <mpath xlink:href="#path17" fill="#FF708E"></mpath>
  </animateMotion>
</circle><path id="path18" d="M 616.9307799311426 466.72109519817246
c 0 29.24508454640412 -7.155712176247816 8.400183859073524 -15.55589603532134 8.400183859073524
S 585.8189878605 495.9661797445766 585.8189878605 466.72109519817246
s 7.155712176247816 -8.400183859073524 15.55589603532134 -8.400183859073524
S 616.9307799311426 437.4760106517683 616.9307799311426 466.72109519817246
z" fill="none" stroke="none"></path>
<circle cx="0" cy="0" r="6.183917127573664" fill="#51CACC" opacity="0.9">
  <animateMotion begin="-8.471977020934416s" dur="10s" repeatCount="indefinite" fill="#51CACC">
    <mpath xlink:href="#path18" fill="#51CACC"></mpath>
  </animateMotion>
</circle><path id="path19" d="M 24.57051763519189 350.913907829679
c 0 21.417716046898242 -5.240504990198505 6.151897162406942 -11.392402152605447 6.151897162406942
S 1.7857133299809984 372.3316238765772 1.7857133299809984 350.913907829679
s 5.240504990198505 -6.151897162406942 11.392402152605447 -6.151897162406942
S 24.57051763519189 329.4961917827807 24.57051763519189 350.913907829679
z" fill="none" stroke="none"></path>
<circle cx="0" cy="0" r="5.768243695367205" fill="#51CACC" opacity="0.9">
  <animateMotion begin="-7.053231159706788s" dur="10s" repeatCount="indefinite" fill="#51CACC">
    <mpath xlink:href="#path19" fill="#51CACC"></mpath>
  </animateMotion>
</circle><path id="path20" d="M 284.7691362810062 286.8239861323436
c 0 33.478673429572346 -8.191590307235787 9.616214708494185 -17.807805015729972 9.616214708494185
S 249.15352624954625 320.3026595619159 249.15352624954625 286.8239861323436
s 8.191590307235787 -9.616214708494185 17.807805015729972 -9.616214708494185
S 284.7691362810062 253.34531270277122 284.7691362810062 286.8239861323436
z" fill="none" stroke="none"></path>
<circle cx="0" cy="0" r="6.845038220169007" fill="#DE9DD6" opacity="0.9">
  <animateMotion begin="-5.618148748754857s" dur="10s" repeatCount="indefinite" fill="#DE9DD6">
    <mpath xlink:href="#path20" fill="#DE9DD6"></mpath>
  </animateMotion>
</circle><path id="path21" d="M 698.4233610774957 314.3182319901103
c 0 21.955981147771915 -5.372208153178234 6.306505223296189 -11.678713376474423 6.306505223296189
S 675.0659343245468 336.2742131378822 675.0659343245468 314.3182319901103
s 5.372208153178234 -6.306505223296189 11.678713376474423 -6.306505223296189
S 698.4233610774957 292.36225084233837 698.4233610774957 314.3182319901103
z" fill="none" stroke="none"></path>
<circle cx="0" cy="0" r="6.06538892573952" fill="#E0FF77" opacity="0.9">
  <animateMotion begin="-9.524854409909837s" dur="10s" repeatCount="indefinite" fill="#E0FF77">
    <mpath xlink:href="#path21" fill="#E0FF77"></mpath>
  </animateMotion>
</circle><path id="path22" d="M 307.9902171617819 43.91186098669312
c 0 29.269742509179864 -7.161745507565285 8.407266465402728 -15.569011972968012 8.407266465402728
S 276.85219321584594 73.18160349587299 276.85219321584594 43.91186098669312
s 7.161745507565285 -8.407266465402728 15.569011972968012 -8.407266465402728
S 307.9902171617819 14.642118477513257 307.9902171617819 43.91186098669312
z" fill="none" stroke="none"></path>
<circle cx="0" cy="0" r="4.04804293244213" fill="#E0FF77" opacity="0.9">
  <animateMotion begin="-7.847567664537538s" dur="10s" repeatCount="indefinite" fill="#E0FF77">
    <mpath xlink:href="#path22" fill="#E0FF77"></mpath>
  </animateMotion>
</circle><path id="path23" d="M 266.90754759193936 543.0934762783882
c 0 34.931674271083665 -8.547111789733234 10.033566014034669 -18.580677803767905 10.033566014034669
S 229.74619198440357 578.0251505494718 229.74619198440357 543.0934762783882
s 8.547111789733234 -10.033566014034669 18.580677803767905 -10.033566014034669
S 266.90754759193936 508.16180200730446 266.90754759193936 543.0934762783882
z" fill="none" stroke="none"></path>
<circle cx="0" cy="0" r="6.084306529255144" fill="#E0FF77" opacity="0.9">
  <animateMotion begin="-5.939010699788576s" dur="10s" repeatCount="indefinite" fill="#E0FF77">
    <mpath xlink:href="#path23" fill="#E0FF77"></mpath>
  </animateMotion>
</circle><path id="path24" d="M 928.220053478749 473.74339663538416
c 0 29.753152309133597 -7.2800266288305595 8.546118216453268 -15.826144845283828 8.546118216453268
S 896.5677637881814 503.49654894451777 896.5677637881814 473.74339663538416
s 7.2800266288305595 -8.546118216453268 15.826144845283828 -8.546118216453268
S 928.220053478749 443.99024432625055 928.220053478749 473.74339663538416
z" fill="none" stroke="none"></path>
<circle cx="0" cy="0" r="4.856767449299607" fill="#E0FF77" opacity="0.9">
  <animateMotion begin="-5.251048790564599s" dur="10s" repeatCount="indefinite" fill="#E0FF77">
    <mpath xlink:href="#path24" fill="#E0FF77"></mpath>
  </animateMotion>
</circle><path id="path25" d="M 433.2824151579674 328.3874379314939
c 0 19.26273562384748 -4.713222546260553 5.532913423871085 -10.246135970131638 5.532913423871085
S 412.7901432177041 347.6501735553414 412.7901432177041 328.3874379314939
s 4.713222546260553 -5.532913423871085 10.246135970131638 -5.532913423871085
S 433.2824151579674 309.1247023076464 433.2824151579674 328.3874379314939
z" fill="none" stroke="none"></path>
<circle cx="0" cy="0" r="6.560807055021361" fill="#51CACC" opacity="0.9">
  <animateMotion begin="-9.510561419950914s" dur="10s" repeatCount="indefinite" fill="#51CACC">
    <mpath xlink:href="#path25" fill="#51CACC"></mpath>
  </animateMotion>
</circle><path id="path26" d="M 742.4838382669741 532.1628135651454
c 0 23.22803183430627 -5.683454597755789 6.671881484322014 -12.355336082077804 6.671881484322014
S 717.7731661028185 555.3908453994517 717.7731661028185 532.1628135651454
s 5.683454597755789 -6.671881484322014 12.355336082077804 -6.671881484322014
S 742.4838382669741 508.9347817308391 742.4838382669741 532.1628135651454
z" fill="none" stroke="none"></path>
<circle cx="0" cy="0" r="4.929184483520546" fill="#FF708E" opacity="0.9">
  <animateMotion begin="-8.4389933074867s" dur="10s" repeatCount="indefinite" fill="#FF708E">
    <mpath xlink:href="#path26" fill="#FF708E"></mpath>
  </animateMotion>
</circle><path id="path27" d="M 905.537567815558 67.61677926081468
c 0 26.900935555159702 -6.5821438060497135 7.726864467971404 -14.309008274021117 7.726864467971404
S 876.9195512675157 94.51771481597439 876.9195512675157 67.61677926081468
s 6.5821438060497135 -7.726864467971404 14.309008274021117 -7.726864467971404
S 905.537567815558 40.715843705654976 905.537567815558 67.61677926081468
z" fill="none" stroke="none"></path>
<circle cx="0" cy="0" r="4.859551405806266" fill="#FF708E" opacity="0.9">
  <animateMotion begin="-5.744245323135619s" dur="10s" repeatCount="indefinite" fill="#FF708E">
    <mpath xlink:href="#path27" fill="#FF708E"></mpath>
  </animateMotion>
</circle><path id="path28" d="M 542.3347779169137 68.49409281109307
c 0 36.196840419867925 -8.856673719754918 10.396964801451427 -19.253638521206344 10.396964801451427
S 503.827500874501 104.690933230961 503.827500874501 68.49409281109307
s 8.856673719754918 -10.396964801451427 19.253638521206344 -10.396964801451427
S 542.3347779169137 32.29725239122514 542.3347779169137 68.49409281109307
z" fill="none" stroke="none"></path>
<circle cx="0" cy="0" r="6.218390103825567" fill="#9DF871" opacity="0.9">
  <animateMotion begin="-1.805171208116565s" dur="10s" repeatCount="indefinite" fill="#9DF871">
    <mpath xlink:href="#path28" fill="#9DF871"></mpath>
  </animateMotion>
</circle><path id="path29" d="M 124.05117104420948 11.684299055474504
c 0 27.822575804177514 -6.807651526554071 7.9915909224765205 -14.799242449030592 7.9915909224765205
S 94.45268614614831 39.506874859652015 94.45268614614831 11.684299055474504
s 6.807651526554071 -7.9915909224765205 14.799242449030592 -7.9915909224765205
S 124.05117104420948 -16.13827674870301 124.05117104420948 11.684299055474504
z" fill="none" stroke="none"></path>
<circle cx="0" cy="0" r="5.786345363626231" fill="#51CACC" opacity="0.9">
  <animateMotion begin="-1.4167728379461053s" dur="10s" repeatCount="indefinite" fill="#51CACC">
    <mpath xlink:href="#path29" fill="#51CACC"></mpath>
  </animateMotion>
</circle></g>
</svg>